<mxfile host="app.diagrams.net" agent="Mozilla/5.0 (Macintosh; Intel Mac OS X 10_15_7) AppleWebKit/537.36 (KHTML, like Gecko) Chrome/137.0.0.0 Safari/537.36" version="24.7.12">
  <diagram name="Page-1" id="uDJUI4dBSmf2cbCkmgjj">
    <mxGraphModel dx="1308" dy="763" grid="1" gridSize="10" guides="1" tooltips="1" connect="1" arrows="1" fold="1" page="1" pageScale="1" pageWidth="850" pageHeight="1100" math="0" shadow="0">
      <root>
        <mxCell id="0" />
        <mxCell id="1" parent="0" />
        <mxCell id="MlqXa8JIlhz3oFpUz93O-1" value="Bank 1" style="swimlane;whiteSpace=wrap;html=1;dashed=1;" vertex="1" parent="1">
          <mxGeometry x="90" y="150" width="260" height="510" as="geometry" />
        </mxCell>
        <mxCell id="MlqXa8JIlhz3oFpUz93O-33" style="edgeStyle=orthogonalEdgeStyle;rounded=0;orthogonalLoop=1;jettySize=auto;html=1;exitX=0.5;exitY=1;exitDx=0;exitDy=0;entryX=0.5;entryY=0;entryDx=0;entryDy=0;" edge="1" parent="MlqXa8JIlhz3oFpUz93O-1" source="MlqXa8JIlhz3oFpUz93O-26" target="MlqXa8JIlhz3oFpUz93O-28">
          <mxGeometry relative="1" as="geometry" />
        </mxCell>
        <mxCell id="MlqXa8JIlhz3oFpUz93O-26" value="&lt;h1 style=&quot;margin-top: 0px;&quot;&gt;&lt;font style=&quot;font-size: 16px;&quot;&gt;Genesis&lt;/font&gt;&lt;/h1&gt;&lt;p&gt;&lt;span style=&quot;text-align: center;&quot;&gt;&lt;font style=&quot;font-size: 10px;&quot;&gt;Train Local Model using Private Data to Identify Location Based Anomalies&lt;/font&gt;&lt;/span&gt;&lt;/p&gt;" style="text;html=1;whiteSpace=wrap;overflow=hidden;rounded=0;strokeColor=default;" vertex="1" parent="MlqXa8JIlhz3oFpUz93O-1">
          <mxGeometry x="10" y="40" width="240" height="90" as="geometry" />
        </mxCell>
        <mxCell id="MlqXa8JIlhz3oFpUz93O-34" style="edgeStyle=orthogonalEdgeStyle;rounded=0;orthogonalLoop=1;jettySize=auto;html=1;exitX=0.5;exitY=1;exitDx=0;exitDy=0;" edge="1" parent="MlqXa8JIlhz3oFpUz93O-1" source="MlqXa8JIlhz3oFpUz93O-28" target="MlqXa8JIlhz3oFpUz93O-29">
          <mxGeometry relative="1" as="geometry" />
        </mxCell>
        <mxCell id="MlqXa8JIlhz3oFpUz93O-28" value="&lt;h1 style=&quot;margin-top: 0px;&quot;&gt;&lt;font style=&quot;font-size: 16px;&quot;&gt;Step 1&lt;/font&gt;&lt;/h1&gt;&lt;p&gt;&lt;span style=&quot;text-align: center;&quot;&gt;&lt;font style=&quot;font-size: 10px;&quot;&gt;Load a batch with Location Based Anomalies to Evaluate the Model and identify anomalies in a previously unseen dataset&lt;/font&gt;&lt;/span&gt;&lt;/p&gt;" style="text;html=1;whiteSpace=wrap;overflow=hidden;rounded=0;strokeColor=default;" vertex="1" parent="MlqXa8JIlhz3oFpUz93O-1">
          <mxGeometry x="10" y="160" width="240" height="100" as="geometry" />
        </mxCell>
        <mxCell id="MlqXa8JIlhz3oFpUz93O-35" style="edgeStyle=orthogonalEdgeStyle;rounded=0;orthogonalLoop=1;jettySize=auto;html=1;" edge="1" parent="MlqXa8JIlhz3oFpUz93O-1" source="MlqXa8JIlhz3oFpUz93O-29" target="MlqXa8JIlhz3oFpUz93O-32">
          <mxGeometry relative="1" as="geometry" />
        </mxCell>
        <mxCell id="MlqXa8JIlhz3oFpUz93O-29" value="&lt;h1 style=&quot;margin-top: 0px;&quot;&gt;&lt;font style=&quot;font-size: 16px;&quot;&gt;Step 2&lt;/font&gt;&lt;/h1&gt;&lt;p&gt;&lt;span style=&quot;text-align: center;&quot;&gt;&lt;font style=&quot;font-size: 10px;&quot;&gt;Load a batch with Account Age Based Anomalies to Evaluate the Model on anomalous data which it has not been directly trained on.&lt;/font&gt;&lt;/span&gt;&lt;/p&gt;" style="text;html=1;whiteSpace=wrap;overflow=hidden;rounded=0;strokeColor=default;" vertex="1" parent="MlqXa8JIlhz3oFpUz93O-1">
          <mxGeometry x="10" y="290" width="240" height="100" as="geometry" />
        </mxCell>
        <mxCell id="MlqXa8JIlhz3oFpUz93O-36" style="edgeStyle=orthogonalEdgeStyle;rounded=0;orthogonalLoop=1;jettySize=auto;html=1;exitX=0;exitY=0.5;exitDx=0;exitDy=0;entryX=0;entryY=0.5;entryDx=0;entryDy=0;" edge="1" parent="MlqXa8JIlhz3oFpUz93O-1" source="MlqXa8JIlhz3oFpUz93O-32" target="MlqXa8JIlhz3oFpUz93O-28">
          <mxGeometry relative="1" as="geometry">
            <Array as="points">
              <mxPoint x="-60" y="455" />
              <mxPoint x="-60" y="210" />
            </Array>
          </mxGeometry>
        </mxCell>
        <mxCell id="MlqXa8JIlhz3oFpUz93O-37" value="Repeat&lt;div&gt;As many times&lt;/div&gt;&lt;div&gt;as Appropriate&lt;/div&gt;" style="edgeLabel;html=1;align=center;verticalAlign=middle;resizable=0;points=[];" vertex="1" connectable="0" parent="MlqXa8JIlhz3oFpUz93O-36">
          <mxGeometry x="-0.0918" y="-1" relative="1" as="geometry">
            <mxPoint x="9" as="offset" />
          </mxGeometry>
        </mxCell>
        <mxCell id="MlqXa8JIlhz3oFpUz93O-32" value="&lt;h1 style=&quot;margin-top: 0px;&quot;&gt;&lt;font style=&quot;font-size: 16px;&quot;&gt;Step 3&lt;/font&gt;&lt;/h1&gt;&lt;p style=&quot;text-align: center;&quot;&gt;&lt;span style=&quot;font-size: 10px;&quot;&gt;Initiate Model Aggregation&lt;/span&gt;&lt;/p&gt;" style="text;html=1;whiteSpace=wrap;overflow=hidden;rounded=0;strokeColor=default;" vertex="1" parent="MlqXa8JIlhz3oFpUz93O-1">
          <mxGeometry x="10" y="420" width="240" height="70" as="geometry" />
        </mxCell>
        <mxCell id="MlqXa8JIlhz3oFpUz93O-38" value="Bank 2" style="swimlane;whiteSpace=wrap;html=1;dashed=1;" vertex="1" parent="1">
          <mxGeometry x="460" y="150" width="260" height="510" as="geometry" />
        </mxCell>
        <mxCell id="MlqXa8JIlhz3oFpUz93O-39" style="edgeStyle=orthogonalEdgeStyle;rounded=0;orthogonalLoop=1;jettySize=auto;html=1;exitX=0.5;exitY=1;exitDx=0;exitDy=0;entryX=0.5;entryY=0;entryDx=0;entryDy=0;" edge="1" parent="MlqXa8JIlhz3oFpUz93O-38" source="MlqXa8JIlhz3oFpUz93O-40" target="MlqXa8JIlhz3oFpUz93O-42">
          <mxGeometry relative="1" as="geometry" />
        </mxCell>
        <mxCell id="MlqXa8JIlhz3oFpUz93O-40" value="&lt;h1 style=&quot;margin-top: 0px;&quot;&gt;&lt;font style=&quot;font-size: 16px;&quot;&gt;Genesis&lt;/font&gt;&lt;/h1&gt;&lt;p&gt;&lt;span style=&quot;text-align: center;&quot;&gt;&lt;font style=&quot;font-size: 10px;&quot;&gt;Train Local Model using Private Data to Identify Account Age Based Anomalies&lt;/font&gt;&lt;/span&gt;&lt;/p&gt;" style="text;html=1;whiteSpace=wrap;overflow=hidden;rounded=0;strokeColor=default;" vertex="1" parent="MlqXa8JIlhz3oFpUz93O-38">
          <mxGeometry x="10" y="40" width="240" height="90" as="geometry" />
        </mxCell>
        <mxCell id="MlqXa8JIlhz3oFpUz93O-41" style="edgeStyle=orthogonalEdgeStyle;rounded=0;orthogonalLoop=1;jettySize=auto;html=1;exitX=0.5;exitY=1;exitDx=0;exitDy=0;" edge="1" parent="MlqXa8JIlhz3oFpUz93O-38" source="MlqXa8JIlhz3oFpUz93O-42" target="MlqXa8JIlhz3oFpUz93O-44">
          <mxGeometry relative="1" as="geometry" />
        </mxCell>
        <mxCell id="MlqXa8JIlhz3oFpUz93O-42" value="&lt;h1 style=&quot;margin-top: 0px;&quot;&gt;&lt;font style=&quot;font-size: 16px;&quot;&gt;Step 1&lt;/font&gt;&lt;/h1&gt;&lt;p&gt;&lt;span style=&quot;text-align: center;&quot;&gt;&lt;font style=&quot;font-size: 10px;&quot;&gt;Load a batch with Account Age Based Anomalies to Evaluate the Model and identify anomalies in a previously unseen dataset&lt;/font&gt;&lt;/span&gt;&lt;/p&gt;" style="text;html=1;whiteSpace=wrap;overflow=hidden;rounded=0;strokeColor=default;" vertex="1" parent="MlqXa8JIlhz3oFpUz93O-38">
          <mxGeometry x="10" y="160" width="240" height="100" as="geometry" />
        </mxCell>
        <mxCell id="MlqXa8JIlhz3oFpUz93O-43" style="edgeStyle=orthogonalEdgeStyle;rounded=0;orthogonalLoop=1;jettySize=auto;html=1;" edge="1" parent="MlqXa8JIlhz3oFpUz93O-38" source="MlqXa8JIlhz3oFpUz93O-44" target="MlqXa8JIlhz3oFpUz93O-47">
          <mxGeometry relative="1" as="geometry" />
        </mxCell>
        <mxCell id="MlqXa8JIlhz3oFpUz93O-44" value="&lt;h1 style=&quot;margin-top: 0px;&quot;&gt;&lt;font style=&quot;font-size: 16px;&quot;&gt;Step 2&lt;/font&gt;&lt;/h1&gt;&lt;p&gt;&lt;span style=&quot;text-align: center;&quot;&gt;&lt;font style=&quot;font-size: 10px;&quot;&gt;Load a batch with Location Based Anomalies to Evaluate the Model on anomalous data which it has not been directly trained on.&lt;/font&gt;&lt;/span&gt;&lt;/p&gt;" style="text;html=1;whiteSpace=wrap;overflow=hidden;rounded=0;strokeColor=default;" vertex="1" parent="MlqXa8JIlhz3oFpUz93O-38">
          <mxGeometry x="10" y="290" width="240" height="100" as="geometry" />
        </mxCell>
        <mxCell id="MlqXa8JIlhz3oFpUz93O-45" style="edgeStyle=orthogonalEdgeStyle;rounded=0;orthogonalLoop=1;jettySize=auto;html=1;exitX=0;exitY=0.5;exitDx=0;exitDy=0;entryX=0;entryY=0.5;entryDx=0;entryDy=0;" edge="1" parent="MlqXa8JIlhz3oFpUz93O-38" source="MlqXa8JIlhz3oFpUz93O-47" target="MlqXa8JIlhz3oFpUz93O-42">
          <mxGeometry relative="1" as="geometry">
            <Array as="points">
              <mxPoint x="-60" y="455" />
              <mxPoint x="-60" y="210" />
            </Array>
          </mxGeometry>
        </mxCell>
        <mxCell id="MlqXa8JIlhz3oFpUz93O-46" value="Repeat&lt;div&gt;As many times&lt;/div&gt;&lt;div&gt;as Appropriate&lt;/div&gt;" style="edgeLabel;html=1;align=center;verticalAlign=middle;resizable=0;points=[];" vertex="1" connectable="0" parent="MlqXa8JIlhz3oFpUz93O-45">
          <mxGeometry x="-0.0918" y="-1" relative="1" as="geometry">
            <mxPoint x="9" as="offset" />
          </mxGeometry>
        </mxCell>
        <mxCell id="MlqXa8JIlhz3oFpUz93O-47" value="&lt;h1 style=&quot;margin-top: 0px;&quot;&gt;&lt;font style=&quot;font-size: 16px;&quot;&gt;Step 3&lt;/font&gt;&lt;/h1&gt;&lt;p style=&quot;text-align: center;&quot;&gt;&lt;span style=&quot;font-size: 10px;&quot;&gt;Initiate Model Aggregation&lt;/span&gt;&lt;/p&gt;" style="text;html=1;whiteSpace=wrap;overflow=hidden;rounded=0;strokeColor=default;" vertex="1" parent="MlqXa8JIlhz3oFpUz93O-38">
          <mxGeometry x="10" y="420" width="240" height="70" as="geometry" />
        </mxCell>
        <mxCell id="MlqXa8JIlhz3oFpUz93O-64" style="edgeStyle=orthogonalEdgeStyle;rounded=0;orthogonalLoop=1;jettySize=auto;html=1;exitX=0.25;exitY=1;exitDx=0;exitDy=0;entryX=0.75;entryY=1;entryDx=0;entryDy=0;" edge="1" parent="1" source="MlqXa8JIlhz3oFpUz93O-48" target="MlqXa8JIlhz3oFpUz93O-32">
          <mxGeometry relative="1" as="geometry">
            <Array as="points">
              <mxPoint x="885" y="700" />
              <mxPoint x="280" y="700" />
            </Array>
          </mxGeometry>
        </mxCell>
        <mxCell id="MlqXa8JIlhz3oFpUz93O-48" value="Aggregator" style="swimlane;whiteSpace=wrap;html=1;dashed=1;" vertex="1" parent="1">
          <mxGeometry x="820" y="150" width="260" height="510" as="geometry" />
        </mxCell>
        <mxCell id="MlqXa8JIlhz3oFpUz93O-57" value="&lt;h1 style=&quot;margin-top: 0px;&quot;&gt;&lt;font style=&quot;font-size: 16px;&quot;&gt;Aggregation Step&lt;/font&gt;&lt;/h1&gt;&lt;p style=&quot;&quot;&gt;&lt;span style=&quot;font-size: 10px;&quot;&gt;Aggregate all submitted compatible client models for a given domain and return the results to all participating clients&lt;/span&gt;&lt;/p&gt;" style="text;html=1;whiteSpace=wrap;overflow=hidden;rounded=0;strokeColor=default;" vertex="1" parent="MlqXa8JIlhz3oFpUz93O-48">
          <mxGeometry x="10" y="400" width="240" height="100" as="geometry" />
        </mxCell>
        <mxCell id="MlqXa8JIlhz3oFpUz93O-58" style="edgeStyle=orthogonalEdgeStyle;rounded=0;orthogonalLoop=1;jettySize=auto;html=1;exitX=1;exitY=0.25;exitDx=0;exitDy=0;entryX=0;entryY=0.5;entryDx=0;entryDy=0;dashed=1;dashPattern=12 12;" edge="1" parent="1" source="MlqXa8JIlhz3oFpUz93O-32" target="MlqXa8JIlhz3oFpUz93O-57">
          <mxGeometry relative="1" as="geometry">
            <mxPoint x="350" y="587.5" as="sourcePoint" />
            <mxPoint x="840" y="575" as="targetPoint" />
            <Array as="points">
              <mxPoint x="380" y="588" />
              <mxPoint x="380" y="680" />
              <mxPoint x="770" y="680" />
              <mxPoint x="770" y="600" />
            </Array>
          </mxGeometry>
        </mxCell>
        <mxCell id="MlqXa8JIlhz3oFpUz93O-59" style="edgeStyle=orthogonalEdgeStyle;rounded=0;orthogonalLoop=1;jettySize=auto;html=1;entryX=0;entryY=0.5;entryDx=0;entryDy=0;dashed=1;dashPattern=8 8;exitX=1;exitY=0.75;exitDx=0;exitDy=0;" edge="1" parent="1" source="MlqXa8JIlhz3oFpUz93O-47" target="MlqXa8JIlhz3oFpUz93O-57">
          <mxGeometry relative="1" as="geometry">
            <Array as="points">
              <mxPoint x="770" y="623" />
              <mxPoint x="770" y="600" />
            </Array>
          </mxGeometry>
        </mxCell>
        <mxCell id="MlqXa8JIlhz3oFpUz93O-63" style="edgeStyle=orthogonalEdgeStyle;rounded=0;orthogonalLoop=1;jettySize=auto;html=1;exitX=0;exitY=0.25;exitDx=0;exitDy=0;entryX=1;entryY=0.25;entryDx=0;entryDy=0;" edge="1" parent="1" source="MlqXa8JIlhz3oFpUz93O-57" target="MlqXa8JIlhz3oFpUz93O-47">
          <mxGeometry relative="1" as="geometry" />
        </mxCell>
      </root>
    </mxGraphModel>
  </diagram>
</mxfile>
